<svg width="40" height="40" viewBox="0 0 40 40" fill="none" xmlns="http://www.w3.org/2000/svg">
  <rect width="40" height="40" fill="#f3f4f6"/>
  <rect x="8" y="8" width="24" height="24" rx="2" fill="#d1d5db"/>
  <path d="M20 15C17.7909 15 16 16.7909 16 19C16 21.2091 17.7909 23 20 23C22.2091 23 24 21.2091 24 19C24 16.7909 22.2091 15 20 15Z" fill="#9ca3af"/>
  <path d="M15 12C15 10.3431 16.3431 9 18 9C19.6569 9 21 10.3431 21 12C21 13.6569 19.6569 15 18 15C16.3431 15 15 13.6569 15 12Z" fill="#9ca3af"/>
  <path d="M19 12C19 11.4477 18.5523 11 18 11C17.4477 11 17 11.4477 17 12C17 12.5523 17.4477 13 18 13C18.5523 13 19 12.5523 19 12Z" fill="#6b7280"/>
</svg>
